# xmcd
# 
# Track frame offsets:
#     150
#     21032
#     42167
# 
# Disc length: 902
# 
# Revision: 2
# Processed by: cddbd v1.5.2PL0 Copyright (c) Steve Scherf et al.
# Submitted via: fre:ac v1.0.17
# 
DISCID=19038403
DTITLE=BUCK-TICK - ミウ
DYEAR=1999
DGENRE=Rock
TTITLE0=ミウ
TTITLE1=パラダイス
TTITLE2=Bran-New Lover -Custom-
EXTD=
EXTT0=
EXTT1=
EXTT2=
PLAYORDER=
